{"title":"Bey Yaar (2014) 1CD DVDSCR Rip Xvid Mp3 TeamTNT Exclusive","uid":11139382,"size":731167594,"categoryP":"video","categoryS":"movies","magnet":"?xt=urn:btih:f48e1ce92a304314c5f1628caa6e75f6d136876a&amp;dn=Bey+Yaar+%282014%29+1CD+DVDSCR+Rip+Xvid+Mp3+TeamTNT+Exclusive&amp;tr=udp%3A%2F%2Ftracker.openbittorrent.com%3A80&amp;tr=udp%3A%2F%2Fopen.demonii.com%3A1337&amp;tr=udp%3A%2F%2Ftracker.coppersurfer.tk%3A6969&amp;tr=udp%3A%2F%2Fexodus.desync.com%3A6969","seeders":10,"leechers":0,"uploader":"inovai","files":9,"time":1412151864,"description":"Bey Yaar (2014) [Gujrati] 1CD DVDSCR Rip Xvid Mp3 TeamTNT Exclusive\n\nCover:\n &lt;a href=&quot;\nhttp://forum.primetimeshow.in/viewtopic.php?f=7&amp;t=745&quot; rel=&quot;nofollow&quot; target=&quot;_NEW&quot;&gt;\nhttp://forum.primetimeshow.in/viewtopic.php?f=7&amp;t=745&lt;/a&gt;\n\nMovie:............Bey Yaar \nSource: ..........DVDSCR @ TeamTNT \nYear:.............2014\n\nScreenshots:\n &lt;a href=&quot;\nhttp://m.primetimeshow.in/share-D0E0_542B9CC9.html&quot; rel=&quot;nofollow&quot; target=&quot;_NEW&quot;&gt;\nhttp://m.primetimeshow.in/share-D0E0_542B9CC9.html&lt;/a&gt;\n &lt;a href=&quot;\nhttp://m.primetimeshow.in/share-B7A4_542B9CC9.html&quot; rel=&quot;nofollow&quot; target=&quot;_NEW&quot;&gt;\nhttp://m.primetimeshow.in/share-B7A4_542B9CC9.html&lt;/a&gt;\n &lt;a href=&quot;\nhttp://m.primetimeshow.in/share-6D0F_542B9CC9.html&quot; rel=&quot;nofollow&quot; target=&quot;_NEW&quot;&gt;\nhttp://m.primetimeshow.in/share-6D0F_542B9CC9.html&lt;/a&gt;\n &lt;a href=&quot;\nhttp://m.primetimeshow.in/share-6377_542B9CC9.html&quot; rel=&quot;nofollow&quot; target=&quot;_NEW&quot;&gt;\nhttp://m.primetimeshow.in/share-6377_542B9CC9.html&lt;/a&gt;\n &lt;a href=&quot;\nhttp://m.primetimeshow.in/share-6211_542B9CC9.html&quot; rel=&quot;nofollow&quot; target=&quot;_NEW&quot;&gt;\nhttp://m.primetimeshow.in/share-6211_542B9CC9.html&lt;/a&gt;\n\nGeneral\nComplete name : C:Bey Yaar.avi\nFormat : AVI\nFormat/Info : Audio Video Interleave\nFile size : 692 MiB\nDuration : 2h 26mn\nOverall bit rate : 659 Kbps\n\nVideo\nID : 0\nFormat : MPEG-4 Visual\nFormat profile : Advanced Simple@L5\nFormat settings, BVOP : 2\nFormat settings, QPel : No\nFormat settings, GMC : No warppoints\nFormat settings, Matrix : Default (H.263)\nCodec ID : XVID\nCodec ID/Hint : XviD\nDuration : 2h 26mn\nBit rate : 572 Kbps\nWidth : 640 pixels\nHeight : 272 pixels\nDisplay aspect ratio : 2.35:1\nFrame rate : 29.970 fps\nColor space : YUV\nChroma subsampling : 4:2:0\nBit depth : 8 bits\nScan type : Progressive\nCompression mode : Lossy\nBits/(Pixel*Frame) : 0.110\nStream size : 601 MiB (87%)\nWriting library : XviD 1.2.1 (UTC 2008-12-04)\n\nAudio\nID : 1\nFormat : MPEG Audio\nFormat version : Version 1\nFormat profile : Layer 3\nMode : Joint stereo\nMode extension : MS Stereo\nCodec ID : 55\nCodec ID/Hint : MP3\nDuration : 2h 26mn\nBit rate mode : Constant\nBit rate : 80.0 Kbps\nChannel(s) : 2 channels\nSampling rate : 32.0 KHz\nCompression mode : Lossy\nStream size : 84.0 MiB (12%)\nAlignment : Aligned on interleaves\nInterleave, duration : 133 ms (4.00 video frames)\nInterleave, preload duration : 216 ms\nTitle : VTS_01_1 T01 2_0ch 192Kbps DELAY 0ms\nWriting library : LAME3.99r\nEncoding settings : -m j -V 4 -q 2 -lowpass 13.5 -b 80\n\n\nSample included in torrent!!\n\nSeed n Enjoy!!","torrent":{"xt":"urn:btih:f48e1ce92a304314c5f1628caa6e75f6d136876a","amp;dn":"Bey+Yaar+%282014%29+1CD+DVDSCR+Rip+Xvid+Mp3+TeamTNT+Exclusive","amp;tr":["udp%3A%2F%2Ftracker.openbittorrent.com%3A80","udp%3A%2F%2Fopen.demonii.com%3A1337","udp%3A%2F%2Ftracker.coppersurfer.tk%3A6969","udp%3A%2F%2Fexodus.desync.com%3A6969"],"infoHash":"f48e1ce92a304314c5f1628caa6e75f6d136876a","infoHashBuffer":{"type":"Buffer","data":[244,142,28,233,42,48,67,20,197,241,98,140,170,110,117,246,209,54,135,106]},"announce":[],"urlList":[]}}